<?xml version="1.0" encoding="UTF-8"?>
<svg width="240" height="180" viewBox="0 0 240 180" fill="none" xmlns="http://www.w3.org/2000/svg">
  <!-- Background Grid -->
  <path d="M20 20h200v140H20V20z" stroke="#E5E7EB" stroke-width="1" stroke-dasharray="4 4"/>
  
  <!-- People -->
  <circle cx="80" cy="60" r="10" fill="#60A5FA"/>
  <path d="M80 70v30M70 90l10 10 10-10M70 80h20" stroke="#60A5FA" stroke-width="2"/>
  
  <circle cx="120" cy="90" r="10" fill="#60A5FA"/>
  <path d="M120 100v30M110 120l10 10 10-10M110 110h20" stroke="#60A5FA" stroke-width="2"/>
  
  <circle cx="160" cy="70" r="10" fill="#60A5FA"/>
  <path d="M160 80v30M150 100l10 10 10-10M150 90h20" stroke="#60A5FA" stroke-width="2"/>
  
  <!-- Exit Routes -->
  <path d="M40 140l15-15m-15 0l15 15" stroke="#10B981" stroke-width="2" stroke-linecap="round"/>
  <path d="M200 140l15-15m-15 0l15 15" stroke="#10B981" stroke-width="2" stroke-linecap="round"/>
  
  <!-- Assembly Point -->
  <circle cx="120" cy="160" r="15" fill="#10B981"/>
  <path d="M110 160h20M120 150v20" stroke="white" stroke-width="2"/>
</svg>
