<?xml version="1.0" encoding="UTF-8"?>
<svg width="240" height="180" viewBox="0 0 240 180" fill="none" xmlns="http://www.w3.org/2000/svg">
  <!-- Building Base -->
  <path d="M40 160h160v10H40v-10z" fill="#E5E7EB"/>
  
  <!-- Building -->
  <path d="M70 40h100v120H70V40z" fill="#F3F4F6"/>
  
  <!-- Windows -->
  <rect x="85" y="60" width="20" height="20" fill="#60A5FA"/>
  <rect x="115" y="60" width="20" height="20" fill="#60A5FA"/>
  <rect x="85" y="90" width="20" height="20" fill="#60A5FA"/>
  <rect x="115" y="90" width="20" height="20" fill="#60A5FA"/>
  <rect x="85" y="120" width="20" height="20" fill="#60A5FA"/>
  <rect x="115" y="120" width="20" height="20" fill="#60A5FA"/>
  
  <!-- Fire -->
  <path d="M100 80c0-20 10-30 20-30s20 10 20 30c0 20-20 30-20 30s-20-10-20-30z" fill="#FCA5A5"/>
  <path d="M110 90c0-10 5-15 10-15s10 5 10 15c0 10-10 15-10 15s-10-5-10-15z" fill="#EF4444"/>
  
  <!-- Smoke -->
  <path d="M90 30c10-10 20-10 30 0s20 10 30 0" stroke="#6B7280" stroke-width="2"/>
  <path d="M80 20c10-10 20-10 30 0s20 10 30 0" stroke="#6B7280" stroke-width="2"/>
  
  <!-- Exit Signs -->
  <rect x="40" y="140" width="30" height="15" fill="#10B981"/>
  <path d="M45 147.5h20M60 142.5l5 5-5 5" stroke="white" stroke-width="2"/>
  
  <rect x="170" y="140" width="30" height="15" fill="#10B981"/>
  <path d="M175 147.5h20M190 142.5l5 5-5 5" stroke="white" stroke-width="2"/>
</svg>
