<?xml version="1.0" standalone="no"?>
<!DOCTYPE svg PUBLIC "-//W3C//DTD SVG 20010904//EN"
 "http://www.w3.org/TR/2001/REC-SVG-20010904/DTD/svg10.dtd">
<svg version="1.0" xmlns="http://www.w3.org/2000/svg"
 width="1536.000000pt" height="1024.000000pt" viewBox="0 0 1536.000000 1024.000000"
 preserveAspectRatio="xMidYMid meet">

<g transform="translate(0.000000,1024.000000) scale(0.100000,-0.100000)"
fill="#000000" stroke="none">
<path d="M4035 6925 c-585 -209 -648 -236 -615 -269 15 -15 219 -92 505 -189
226 -78 272 -90 319 -85 23 3 145 41 271 86 127 44 240 83 253 87 21 6 22 4
22 -53 0 -33 -5 -106 -10 -162 -10 -88 -9 -105 5 -126 18 -28 65 -33 85 -9 11
13 5 171 -13 356 -3 23 4 28 76 54 43 16 83 35 88 41 12 15 2 41 -19 49 -36
14 -377 137 -566 204 -109 39 -210 71 -225 70 -14 0 -93 -24 -176 -54z"/>
<path d="M3756 6432 c-3 -3 -6 -53 -6 -112 0 -148 -3 -145 208 -214 216 -71
259 -76 378 -42 149 42 308 104 327 127 24 30 26 226 1 236 -18 6 -32 2 -252
-76 -86 -31 -160 -51 -185 -51 -24 0 -116 25 -220 60 -210 70 -244 80 -251 72z"/>
<path d="M5990 6394 c-150 -40 -233 -143 -234 -289 -1 -92 22 -152 80 -205 55
-50 115 -78 260 -120 176 -51 225 -92 209 -176 -13 -72 -92 -112 -194 -99 -31
4 -68 13 -83 21 -34 18 -78 75 -78 102 0 11 -3 23 -8 26 -7 4 -175 -12 -198
-19 -17 -5 3 -102 31 -151 67 -115 255 -177 459 -153 174 21 287 137 289 298
2 169 -73 252 -288 321 -184 59 -215 72 -240 102 -31 37 -33 95 -5 131 28 35
80 50 156 45 78 -5 110 -25 143 -92 l24 -47 56 6 c31 3 76 8 99 11 l44 6 -7
36 c-31 169 -171 263 -388 261 -40 0 -97 -7 -127 -15z"/>
<path d="M8840 5865 l0 -525 105 0 105 0 0 118 0 119 33 37 32 38 93 -146 c52
-80 100 -150 107 -156 8 -7 57 -10 130 -8 l116 3 -42 60 c-176 250 -260 381
-253 391 5 6 68 80 139 164 72 84 131 156 133 159 1 4 -49 8 -112 9 l-114 2
-129 -153 -128 -154 -3 284 -2 283 -105 0 -105 0 0 -525z"/>
<path d="M10260 5865 l0 -525 105 0 104 0 3 258 c3 284 6 298 67 339 24 16 48
23 83 23 66 0 105 -22 129 -73 17 -38 19 -68 19 -294 l0 -253 106 0 106 0 -5
293 c-3 214 -7 303 -18 332 -19 57 -105 140 -160 156 -55 16 -163 16 -215 -1
-21 -7 -56 -25 -76 -42 l-38 -29 0 171 0 170 -105 0 -105 0 0 -525z"/>
<path d="M7820 6129 c-55 -11 -87 -33 -120 -84 l-25 -38 -5 58 -5 58 -97 2
-98 1 0 -393 0 -393 105 0 105 0 0 228 c0 216 1 230 23 272 28 57 70 81 152
88 l65 5 0 103 0 104 -27 -1 c-16 -1 -48 -5 -73 -10z"/>
<path d="M8275 6130 c-79 -9 -158 -50 -194 -100 -29 -40 -59 -135 -47 -147 3
-4 46 -8 94 -10 l88 -3 13 36 c24 68 139 94 209 48 29 -19 52 -72 52 -119 l0
-35 -127 0 c-145 0 -217 -15 -278 -57 -116 -81 -114 -287 4 -367 57 -38 105
-49 200 -44 95 5 129 18 179 69 l32 33 0 -47 0 -47 98 0 97 0 -2 183 c-6 384
-7 398 -31 452 -29 63 -55 91 -113 120 -37 19 -180 49 -207 44 -4 -1 -34 -5
-67 -9z m213 -501 c-6 -62 -31 -97 -88 -126 -112 -57 -221 1 -196 103 13 49
75 71 205 73 l84 1 -5 -51z"/>
<path d="M9780 6130 c-142 -25 -214 -102 -215 -230 0 -51 6 -74 24 -107 39
-68 98 -99 271 -144 124 -33 164 -86 105 -144 -20 -21 -34 -25 -82 -25 -69 0
-114 23 -139 72 -9 18 -18 34 -19 36 -2 2 -41 -2 -89 -9 -81 -11 -86 -14 -86
-36 0 -59 68 -142 150 -184 36 -18 66 -23 156 -27 142 -6 198 11 264 77 73 73
89 164 46 257 -35 76 -79 102 -246 145 -89 23 -140 44 -152 63 -17 24 -8 65
18 85 54 42 158 19 195 -44 14 -24 27 -34 38 -31 9 3 47 8 84 12 l68 6 -7 32
c-23 110 -97 175 -225 196 -72 11 -94 11 -159 0z"/>
<path d="M11367 6129 c-133 -19 -235 -119 -237 -231 l0 -28 90 0 90 0 14 34
c8 20 28 42 45 50 38 20 113 21 150 1 31 -16 61 -77 61 -125 l0 -30 -123 0
c-258 0 -367 -71 -367 -239 1 -155 96 -233 285 -233 82 1 126 15 178 62 l37
32 0 -41 0 -41 98 0 97 0 -2 143 c-8 439 -8 429 -31 482 -43 93 -117 146 -233
165 -71 11 -71 11 -152 -1z m210 -501 c-11 -89 -61 -137 -153 -144 -48 -4 -65
-1 -91 15 -51 32 -57 98 -11 140 28 26 84 39 182 40 l79 1 -6 -52z"/>
<path d="M6620 5865 c0 -286 9 -352 53 -428 42 -71 99 -100 209 -105 105 -5
161 12 214 64 l34 35 0 -46 0 -45 98 0 97 0 -3 392 c-2 216 -4 393 -5 394 -1
0 -46 -1 -99 -4 l-98 -4 0 -242 c0 -137 -5 -257 -11 -279 -21 -79 -149 -120
-217 -71 -54 41 -57 57 -60 340 l-3 260 -104 0 -105 -1 0 -260z"/>
<path d="M3311 6055 c-146 -21 -155 -26 -162 -100 -4 -33 -6 -198 -5 -366 1
-344 2 -346 66 -335 19 3 64 12 100 21 36 9 126 18 200 22 163 7 269 -10 391
-62 96 -42 122 -59 211 -142 70 -66 89 -73 126 -47 l22 15 0 341 0 341 41 39
c54 52 175 111 279 136 88 22 253 42 345 42 45 0 55 3 60 20 9 30 -3 59 -28
64 -68 14 -119 15 -220 6 -205 -19 -343 -64 -470 -152 -61 -42 -94 -58 -83
-39 17 28 -229 152 -359 181 -123 28 -372 35 -514 15z m499 -126 c105 -27 239
-93 303 -149 l47 -42 0 -264 c0 -145 -3 -264 -7 -264 -5 0 -27 15 -50 34 -109
86 -253 139 -426 157 -142 14 -246 7 -394 -26 l-23 -5 0 284 0 285 53 5 c28 3
66 8 82 10 17 2 98 3 180 1 113 -3 171 -9 235 -26z"/>
<path d="M4755 5863 c-121 -17 -242 -70 -298 -132 -53 -59 -70 -98 -75 -176
-4 -58 0 -80 18 -123 30 -69 105 -137 217 -195 162 -84 203 -128 203 -217 0
-60 -26 -106 -86 -154 -75 -58 -150 -85 -474 -165 -157 -38 -319 -84 -359
-101 -230 -95 -346 -207 -408 -394 -24 -74 -27 -95 -27 -236 0 -169 17 -267
70 -392 30 -73 117 -206 169 -261 l36 -37 581 2 c585 3 615 5 576 37 -7 6 -67
46 -133 89 -346 226 -562 487 -543 656 11 90 74 171 186 237 33 20 152 71 264
114 262 101 364 166 442 285 66 100 86 187 66 286 -32 161 -142 251 -448 369
-179 69 -232 114 -232 200 0 126 170 215 412 215 47 0 71 5 82 16 17 17 22 49
6 39 -6 -3 -7 1 -4 9 4 11 -3 19 -21 26 -25 10 -158 11 -220 3z"/>
<path d="M3380 5069 c-69 -13 -163 -64 -226 -122 -66 -60 -157 -185 -149 -205
2 -7 0 -10 -5 -7 -11 7 -63 -99 -75 -153 -12 -55 15 -50 109 22 62 47 95 66
116 66 29 0 30 0 23 -45 -6 -44 -5 -45 21 -45 23 0 31 8 52 58 50 111 60 127
114 183 38 38 70 61 104 72 87 30 91 26 53 -45 -28 -54 -32 -72 -31 -132 1
-80 17 -120 64 -160 42 -35 86 -35 102 -1 10 23 8 29 -20 58 -39 41 -47 75
-29 120 25 58 54 71 147 64 77 -5 80 -4 80 17 0 41 -51 125 -106 175 -86 79
-206 107 -344 80z"/>
<path d="M5790 4439 l0 -519 110 0 110 0 0 169 0 169 138 4 c111 3 148 8 193
26 76 30 142 90 176 160 25 51 28 67 28 157 0 80 -5 109 -21 146 -28 59 -76
114 -130 145 -83 48 -132 56 -376 60 l-228 3 0 -520z m450 319 c112 -57 122
-214 19 -290 -34 -26 -89 -37 -176 -38 l-73 0 0 175 0 175 93 0 c76 0 101 -4
137 -22z"/>
<path d="M7950 4438 l0 -518 99 0 100 0 3 258 c3 237 5 260 23 292 29 49 77
72 143 67 61 -4 97 -31 112 -86 5 -20 10 -147 10 -283 l0 -248 105 0 106 0 -5
288 c-3 162 -10 303 -16 324 -16 56 -69 119 -123 146 -96 50 -253 38 -327 -25
l-30 -25 0 167 0 166 -100 -2 -100 -3 0 -518z"/>
<path d="M7440 4790 l0 -90 -29 0 c-16 0 -43 -3 -60 -6 l-31 -6 0 -74 0 -74
60 0 60 0 0 -205 c0 -112 5 -227 11 -254 13 -60 57 -124 101 -147 38 -20 152
-30 232 -20 l56 7 0 78 0 77 -59 -4 c-54 -4 -61 -2 -92 26 l-34 30 -3 206 -3
206 95 0 96 0 0 75 0 75 -95 0 -95 0 0 95 0 95 -105 0 -105 0 0 -90z"/>
<path d="M6803 4691 c-28 -11 -68 -31 -87 -46 -41 -32 -86 -115 -86 -162 l0
-33 69 0 c38 0 76 -3 85 -6 10 -4 19 5 30 29 25 61 99 91 168 68 53 -18 80
-52 86 -111 l5 -50 -94 0 c-199 -1 -304 -35 -364 -119 -23 -33 -30 -54 -33
-107 -6 -89 11 -136 66 -185 57 -50 105 -62 217 -57 98 5 141 20 186 69 l27
29 6 -45 7 -45 92 0 92 0 -2 92 c-2 51 -4 181 -6 288 -3 179 -5 199 -26 248
-32 71 -94 125 -169 146 -79 22 -203 20 -269 -3z m265 -486 c-5 -64 -30 -97
-93 -126 -66 -31 -163 -19 -185 21 -15 28 -12 83 5 108 22 31 96 50 194 51
l83 1 -4 -55z"/>
<path d="M3047 4376 c-52 -19 -111 -61 -127 -91 -10 -19 -11 -31 -2 -50 15
-31 30 -31 73 0 89 65 153 78 245 50 82 -25 107 -20 148 25 20 22 36 47 36 55
0 18 -38 20 -74 4 -20 -9 -38 -8 -84 5 -70 19 -163 20 -215 2z"/>
<path d="M4959 4340 c-25 -15 -117 -153 -151 -228 -78 -171 -102 -301 -75
-406 17 -64 62 -140 78 -131 5 4 8 1 7 -6 -2 -7 12 -23 31 -35 69 -48 157 -56
244 -24 77 29 131 79 169 158 32 65 33 71 33 192 0 107 -3 132 -22 173 -12 26
-27 47 -33 47 -6 0 -32 -12 -56 -26 -25 -15 -46 -25 -48 -23 -2 2 -16 49 -31
104 -51 191 -86 240 -146 205z m41 -162 c25 -94 73 -244 83 -255 15 -19 38
-16 79 12 20 14 39 25 42 25 4 0 6 -40 6 -88 0 -89 -16 -158 -46 -197 -15 -20
-15 -20 -36 5 -11 13 -47 72 -80 131 -33 59 -68 115 -78 124 -42 38 -71 -4
-107 -149 -32 -126 -48 -127 -48 -3 1 56 8 106 24 157 32 104 121 280 141 280
5 0 14 -19 20 -42z m2 -463 c29 -44 56 -87 59 -95 18 -45 -107 -51 -136 -6
-12 18 -13 34 -4 86 11 71 19 103 24 98 2 -2 27 -39 57 -83z"/>
<path d="M3140 4121 c-49 -15 -125 -60 -151 -88 -42 -45 -54 -87 -40 -134 15
-49 59 -79 157 -108 40 -12 77 -28 83 -35 14 -16 2 -45 -43 -105 -49 -66 -28
-128 51 -150 69 -19 103 -13 116 22 10 28 -3 46 -39 53 -19 3 -34 10 -34 14 0
4 14 34 30 65 34 64 37 90 15 141 -10 25 -20 34 -30 30 -8 -3 -14 0 -12 6 1 7
-36 22 -86 36 -104 29 -131 54 -104 96 9 13 41 36 72 51 48 24 64 27 120 23
50 -5 65 -2 69 9 21 53 -14 83 -94 82 -30 0 -66 -4 -80 -8z"/>
</g>
</svg>
